<svg xmlns="http://www.w3.org/2000/svg" viewBox="0 0 120 120" fill="none">
  <!-- Circle background -->
  <circle cx="60" cy="60" r="56" fill="#3498db"/>
  <!-- Gear outer -->
  <path d="M60 22a38 38 0 1 1 0 76 38 38 0 0 1 0-76zm0 12a26 26 0 1 0 0 52 26 26 0 0 0 0-52z" fill="#fff" opacity="0.2"/>
  <!-- Wrench -->
  <g transform="translate(60,60) rotate(-45)">
    <rect x="-5" y="-30" width="10" height="40" rx="3" fill="#fff"/>
    <path d="M-10,-30 a10,10 0 0,1 20,0 L5,-22 -5,-22 z" fill="#fff"/>
    <rect x="-3" y="10" width="6" height="22" rx="2" fill="#fff"/>
  </g>
  <!-- Car silhouette -->
  <g transform="translate(60,68)">
    <path d="M-18,0 L-14,-10 -6,-14 6,-14 14,-10 18,0 z" fill="#fff" opacity="0.9"/>
    <rect x="-20" y="0" width="40" height="8" rx="3" fill="#fff" opacity="0.9"/>
    <circle cx="-12" cy="8" r="4" fill="#2c3e50"/>
    <circle cx="12" cy="8" r="4" fill="#2c3e50"/>
    <circle cx="-12" cy="8" r="2" fill="#7f8c8d"/>
    <circle cx="12" cy="8" r="2" fill="#7f8c8d"/>
  </g>
</svg>
